<svg width="24" height="24" viewBox="0 0 24 24" fill="none" xmlns="http://www.w3.org/2000/svg">
<path fill-rule="evenodd" clip-rule="evenodd" d="M23.5713 8.47073C23.5313 5.75863 21.9958 3.08775 19.6334 1.98693C18.4329 1.42747 17.0405 1.28814 15.5886 1.74903C14.3792 2.13291 13.168 2.91969 12 4.15668C10.832 2.91969 9.62081 2.13291 8.41143 1.74903C6.95945 1.28814 5.56713 1.42747 4.36654 1.98693C2.00419 3.08775 0.468773 5.75863 0.428683 8.47073L0.428589 8.4834C0.428589 12.4391 2.78109 15.9436 5.27253 18.4032C6.53018 19.6447 7.85772 20.6553 9.01574 21.3609C9.59439 21.7133 10.1422 21.9969 10.6276 22.1949C11.0914 22.3841 11.5752 22.528 12 22.528C12.4248 22.528 12.9086 22.3841 13.3724 22.1949C13.8578 21.9969 14.4056 21.7133 14.9843 21.3609C16.1423 20.6553 17.4698 19.6447 18.7276 18.4032C21.2189 15.9436 23.5714 12.4391 23.5714 8.4834L23.5713 8.47073Z" fill="#E51F1F"/>
</svg>
