<svg width="24" height="22" viewBox="0 0 24 22" fill="none" xmlns="http://www.w3.org/2000/svg">
<path fill-rule="evenodd" clip-rule="evenodd" d="M12.8229 4.87587C14.0465 3.40824 15.2211 2.64745 16.2424 2.33052C17.2512 2.01749 18.1745 2.11585 18.9727 2.47945C20.6121 3.22616 21.8229 5.1554 21.8571 7.21546C21.8537 10.3961 19.8879 13.4184 17.5037 15.7193C16.3269 16.8552 15.0917 17.7714 14.0408 18.3973C13.5149 18.7105 13.0494 18.9426 12.6724 19.093C12.2691 19.2538 12.0548 19.2855 12 19.2855C11.9451 19.2855 11.7308 19.2538 11.3275 19.093C10.9505 18.9426 10.485 18.7105 9.95919 18.3973C8.90829 17.7714 7.67307 16.8552 6.4962 15.7194C4.11209 13.4187 2.14623 10.3964 2.14286 7.21577C2.17706 5.15569 3.38794 3.22637 5.02731 2.47959C5.82557 2.11596 6.74889 2.01756 7.75762 2.33057C8.77893 2.64749 9.95347 3.40824 11.1771 4.87587C11.3806 5.12004 11.6821 5.26121 12 5.26121C12.3179 5.26121 12.6194 5.12004 12.8229 4.87587ZM23.9998 7.19107C23.9577 4.40316 22.3454 1.66102 19.861 0.529368C18.5962 -0.0466884 17.1312 -0.188962 15.6073 0.283939C14.3855 0.6631 13.1695 1.42311 12 2.5981C10.8305 1.42313 9.61452 0.663117 8.39268 0.283978C6.86875 -0.188892 5.40369 -0.0465684 4.13901 0.52954C1.65459 1.66126 0.0422798 4.40345 0.000122513 7.19136L0 7.20756C0 11.2457 2.45239 14.7949 5.00815 17.2614C6.30225 18.5103 7.66858 19.5272 8.86267 20.2385C9.45933 20.5938 10.0272 20.8813 10.5335 21.0833C11.0135 21.2748 11.5325 21.4284 12 21.4284C12.4675 21.4284 12.9865 21.2748 13.4665 21.0833C13.9728 20.8813 14.5407 20.5938 15.1373 20.2383C16.3314 19.5272 17.6978 18.5101 18.9919 17.2613C21.5475 14.7947 24 11.2454 24 7.20727L23.9998 7.19107Z" fill="#E51F1F"/>
</svg>
