<svg width="24" height="24" viewBox="0 0 24 24" fill="none" xmlns="http://www.w3.org/2000/svg">
<path fill-rule="evenodd" clip-rule="evenodd" d="M12.8229 6.16176C14.0465 4.69413 15.2211 3.93334 16.2424 3.61641C17.2512 3.30338 18.1745 3.40174 18.9727 3.76534C20.6121 4.51205 21.8229 6.44129 21.8571 8.50135C21.8537 11.682 19.8879 14.7043 17.5037 17.0052C16.3269 18.1411 15.0917 19.0573 14.0408 19.6832C13.5149 19.9964 13.0494 20.2285 12.6724 20.3789C12.2691 20.5397 12.0548 20.5714 12 20.5714C11.9451 20.5714 11.7308 20.5397 11.3275 20.3789C10.9505 20.2285 10.485 19.9964 9.95919 19.6832C8.90829 19.0573 7.67307 18.1411 6.4962 17.0053C4.11209 14.7045 2.14623 11.6823 2.14286 8.50166C2.17706 6.44158 3.38794 4.51226 5.02731 3.76548C5.82557 3.40185 6.74889 3.30345 7.75762 3.61646C8.77893 3.93338 9.95347 4.69413 11.1771 6.16176C11.3806 6.40593 11.6821 6.5471 12 6.5471C12.3179 6.5471 12.6194 6.40593 12.8229 6.16176ZM23.9998 8.47695C23.9577 5.68905 22.3454 2.94691 19.861 1.81526C18.5962 1.2392 17.1312 1.09693 15.6073 1.56983C14.3855 1.94899 13.1695 2.709 12 3.88399C10.8305 2.70902 9.61452 1.94901 8.39268 1.56987C6.86875 1.097 5.40369 1.23932 4.13901 1.81543C1.65459 2.94715 0.0422798 5.68934 0.000122513 8.47724L0 8.49344C0 12.5316 2.45239 16.0808 5.00815 18.5473C6.30225 19.7962 7.66858 20.8131 8.86267 21.5244C9.45933 21.8797 10.0272 22.1672 10.5335 22.3692C11.0135 22.5607 11.5325 22.7143 12 22.7143C12.4675 22.7143 12.9865 22.5607 13.4665 22.3692C13.9728 22.1672 14.5407 21.8797 15.1373 21.5242C16.3314 20.8131 17.6978 19.796 18.9919 18.5472C21.5475 16.0806 24 12.5313 24 8.49315L23.9998 8.47695Z" fill="#979797"/>
</svg>
