<svg width="22" height="21" viewBox="0 0 22 21" fill="none" xmlns="http://www.w3.org/2000/svg">
<path d="M21.2647 0.473681C20.9799 0.236811 20.6363 0.0815712 20.2704 0.0244812C19.9044 -0.0326088 19.5299 0.0105912 19.1865 0.149471L1.26566 7.38482C0.882414 7.5425 0.556184 7.81301 0.330264 8.1604C0.104344 8.5079 -0.0105686 8.9158 0.000764399 9.33C0.0121044 9.7443 0.149164 10.1453 0.393744 10.4799C0.638324 10.8144 0.978864 11.0667 1.37016 11.2032L4.99516 12.4639L7.01566 19.1456C7.04312 19.2348 7.08297 19.3198 7.13404 19.3979C7.14179 19.4099 7.15272 19.4189 7.16096 19.4305C7.21996 19.5129 7.29127 19.5856 7.37239 19.6463C7.39546 19.6639 7.41755 19.6804 7.44221 19.696C7.53714 19.759 7.64228 19.805 7.75294 19.8321L7.76478 19.8331L7.77149 19.836C7.83802 19.8495 7.90574 19.8564 7.97364 19.8565C7.98017 19.8565 7.98597 19.8533 7.99244 19.8532C8.0949 19.8514 8.19647 19.8338 8.29353 19.8009C8.31611 19.7932 8.33546 19.7804 8.35737 19.7711C8.42975 19.7411 8.49832 19.7026 8.56166 19.6565C8.61238 19.6138 8.66312 19.571 8.71388 19.5283L11.416 16.545L15.4463 19.667C15.8011 19.9433 16.2378 20.0934 16.6875 20.0938C17.1587 20.0932 17.6153 19.9306 17.9809 19.6333C18.3464 19.336 18.5987 18.9221 18.6953 18.461L21.958 2.44439C22.0319 2.08391 22.0065 1.71011 21.8843 1.36298C21.7622 1.01585 21.548 0.708451 21.2647 0.473681ZM8.37016 12.7823C8.2315 12.9204 8.13672 13.0964 8.0977 13.2881L7.78819 14.7921L7.00413 12.1991L11.0693 10.0821L8.37016 12.7823ZM16.6719 18.086L11.9092 14.3965C11.7099 14.2425 11.46 14.1693 11.2091 14.1914C10.9583 14.2134 10.725 14.3292 10.5557 14.5156L9.69024 15.4708L9.99614 13.9844L17.0791 6.90139C17.2482 6.73255 17.3512 6.50875 17.3695 6.27051C17.3877 6.03228 17.3201 5.79537 17.1788 5.60271C17.0375 5.41004 16.8318 5.27435 16.5991 5.22023C16.3664 5.1661 16.122 5.19711 15.9101 5.30764L5.74491 10.6003L2.02055 9.2374L19.999 2.04495L16.6719 18.086Z" fill="#0F98D8"/>
</svg>
